<mxfile host="app.diagrams.net" modified="2023-05-18T18:27:47.085Z" agent="Mozilla/5.0 (Windows NT 10.0; Win64; x64) AppleWebKit/537.36 (KHTML, like Gecko) Chrome/113.0.0.0 Safari/537.36 Edg/113.0.1774.42" version="21.2.1" etag="j6jax25eA-YdrmQFNLAs" type="github">
  <diagram name="Page-1" id="tOs7ALOhLcPZ_gjZavUy">
    <mxGraphModel>
      <root>
        <mxCell id="0" />
        <mxCell id="1" parent="0" />
        <mxCell id="2" value="Backend Services" style="whiteSpace=wrap;strokeWidth=2;verticalAlign=top;" vertex="1" parent="1">
          <mxGeometry width="1133" height="168" as="geometry" />
        </mxCell>
        <mxCell id="3" value="Authentication Service" style="whiteSpace=wrap;strokeWidth=2;" vertex="1" parent="1">
          <mxGeometry x="35" y="109" width="179" height="34" as="geometry" />
        </mxCell>
        <mxCell id="4" value="User Profile Service" style="whiteSpace=wrap;strokeWidth=2;" vertex="1" parent="1">
          <mxGeometry x="264" y="109" width="155" height="34" as="geometry" />
        </mxCell>
        <mxCell id="5" value="Student Service" style="whiteSpace=wrap;strokeWidth=2;" vertex="1" parent="1">
          <mxGeometry x="474" y="109" width="127" height="34" as="geometry" />
        </mxCell>
        <mxCell id="6" value="Appointment Service" style="whiteSpace=wrap;strokeWidth=2;" vertex="1" parent="1">
          <mxGeometry x="763" y="109" width="165" height="34" as="geometry" />
        </mxCell>
        <mxCell id="7" value="Course Service" style="whiteSpace=wrap;strokeWidth=2;" vertex="1" parent="1">
          <mxGeometry x="978" y="109" width="120" height="34" as="geometry" />
        </mxCell>
        <mxCell id="8" value="University Database" style="whiteSpace=wrap;strokeWidth=2;" vertex="1" parent="1">
          <mxGeometry x="459" y="25" width="157" height="34" as="geometry" />
        </mxCell>
        <mxCell id="9" value="Mobile Application Architecture" style="whiteSpace=wrap;strokeWidth=2;verticalAlign=top;" vertex="1" parent="1">
          <mxGeometry x="22" y="218" width="1085" height="252" as="geometry" />
        </mxCell>
        <mxCell id="10" value="Sign Up/Login" style="rounded=1;absoluteArcSize=1;arcSize=14;whiteSpace=wrap;strokeWidth=2;" vertex="1" parent="1">
          <mxGeometry x="57" y="327" width="115" height="34" as="geometry" />
        </mxCell>
        <mxCell id="11" value="University Student Advisors Mobile App" style="whiteSpace=wrap;strokeWidth=2;" vertex="1" parent="1">
          <mxGeometry x="482" y="243" width="292" height="34" as="geometry" />
        </mxCell>
        <mxCell id="12" value="Homepage" style="rounded=1;absoluteArcSize=1;arcSize=14;whiteSpace=wrap;strokeWidth=2;" vertex="1" parent="1">
          <mxGeometry x="593" y="327" width="90" height="34" as="geometry" />
        </mxCell>
        <mxCell id="13" value="Students List" style="rounded=1;absoluteArcSize=1;arcSize=14;whiteSpace=wrap;strokeWidth=2;" vertex="1" parent="1">
          <mxGeometry x="403" y="411" width="108" height="34" as="geometry" />
        </mxCell>
        <mxCell id="14" value="Appointments" style="rounded=1;absoluteArcSize=1;arcSize=14;whiteSpace=wrap;strokeWidth=2;" vertex="1" parent="1">
          <mxGeometry x="671" y="411" width="116" height="34" as="geometry" />
        </mxCell>
        <mxCell id="15" value="Degree Requirements" style="rounded=1;absoluteArcSize=1;arcSize=14;whiteSpace=wrap;strokeWidth=2;" vertex="1" parent="1">
          <mxGeometry x="837" y="411" width="169" height="34" as="geometry" />
        </mxCell>
        <mxCell id="16" value="" style="curved=1;startArrow=none;endArrow=block;exitX=0.3900206205662915;exitY=1;entryX=0.999116847826087;entryY=0.33638075606621703;" edge="1" parent="1" source="11" target="10">
          <mxGeometry relative="1" as="geometry">
            <Array as="points">
              <mxPoint x="548" y="302" />
            </Array>
          </mxGeometry>
        </mxCell>
        <mxCell id="17" value="" style="curved=1;startArrow=none;endArrow=block;exitX=0.515634236892531;exitY=1;entryX=0.5057508680555556;entryY=0;" edge="1" parent="1" source="11" target="12">
          <mxGeometry relative="1" as="geometry">
            <Array as="points">
              <mxPoint x="639" y="302" />
            </Array>
          </mxGeometry>
        </mxCell>
        <mxCell id="18" value="" style="curved=1;startArrow=none;endArrow=block;exitX=0.09820446841931194;exitY=1;entryX=0.8422080818727956;entryY=0;" edge="1" parent="1" source="12" target="13">
          <mxGeometry relative="1" as="geometry">
            <Array as="points">
              <mxPoint x="548" y="386" />
            </Array>
          </mxGeometry>
        </mxCell>
        <mxCell id="19" value="" style="curved=1;startArrow=none;endArrow=block;exitX=0.5057508680555556;exitY=1;entryX=0.1849788170925696;entryY=0;" edge="1" parent="1" source="12" target="14">
          <mxGeometry relative="1" as="geometry">
            <Array as="points">
              <mxPoint x="639" y="386" />
            </Array>
          </mxGeometry>
        </mxCell>
        <mxCell id="20" value="" style="curved=1;startArrow=none;endArrow=block;exitX=0.982813016699735;exitY=1;entryX=0.07555935650887574;entryY=0;" edge="1" parent="1" source="12" target="15">
          <mxGeometry relative="1" as="geometry">
            <Array as="points">
              <mxPoint x="745" y="386" />
            </Array>
          </mxGeometry>
        </mxCell>
        <mxCell id="21" value="" style="curved=1;startArrow=none;endArrow=block;exitX=0.47734395783453043;exitY=1;entryX=0.4999320652173913;entryY=0;" edge="1" parent="1" source="3" target="10">
          <mxGeometry relative="1" as="geometry">
            <Array as="points">
              <mxPoint x="114" y="168" />
            </Array>
          </mxGeometry>
        </mxCell>
        <mxCell id="22" value="" style="curved=1;startArrow=none;endArrow=block;exitX=0.24345358102918577;exitY=1;entryX=0.0034505208333333332;entryY=0.3587855287023023;" edge="1" parent="1" source="4" target="12">
          <mxGeometry relative="1" as="geometry">
            <Array as="points">
              <mxPoint x="243" y="168" />
              <mxPoint x="243" y="302" />
            </Array>
          </mxGeometry>
        </mxCell>
        <mxCell id="23" value="" style="curved=1;startArrow=none;endArrow=block;exitX=0.21432489395856752;exitY=1;entryX=0.4651081280313052;entryY=0;" edge="1" parent="1" source="5" target="13">
          <mxGeometry relative="1" as="geometry">
            <Array as="points">
              <mxPoint x="447" y="168" />
              <mxPoint x="447" y="386" />
            </Array>
          </mxGeometry>
        </mxCell>
        <mxCell id="24" value="" style="curved=1;startArrow=none;endArrow=block;exitX=0.4737289186507937;exitY=1;entryX=0.8713130355860013;entryY=0;" edge="1" parent="1" source="6" target="14">
          <mxGeometry relative="1" as="geometry">
            <Array as="points">
              <mxPoint x="835" y="168" />
              <mxPoint x="835" y="386" />
            </Array>
          </mxGeometry>
        </mxCell>
        <mxCell id="25" value="" style="curved=1;startArrow=none;endArrow=block;exitX=0.46487475198412653;exitY=1;entryX=0.7535102867885322;entryY=0;" edge="1" parent="1" source="7" target="15">
          <mxGeometry relative="1" as="geometry">
            <Array as="points">
              <mxPoint x="1028" y="168" />
              <mxPoint x="1028" y="386" />
            </Array>
          </mxGeometry>
        </mxCell>
        <mxCell id="26" value="" style="curved=1;startArrow=none;endArrow=block;exitX=0.0015177149681528663;exitY=0.8716725956753026;entryX=0.001999261811023622;entryY=0.19927687335066266;" edge="1" parent="1" source="8" target="5">
          <mxGeometry relative="1" as="geometry">
            <Array as="points">
              <mxPoint x="276" y="84" />
            </Array>
          </mxGeometry>
        </mxCell>
        <mxCell id="27" value="" style="curved=1;startArrow=none;endArrow=block;exitX=0.7228474577680235;exitY=1;entryX=0.000956496147260274;entryY=0.05445794528377235;" edge="1" parent="1" source="3" target="11">
          <mxGeometry relative="1" as="geometry">
            <Array as="points">
              <mxPoint x="223" y="168" />
              <mxPoint x="223" y="218" />
            </Array>
          </mxGeometry>
        </mxCell>
        <mxCell id="28" value="" style="curved=1;startArrow=none;endArrow=block;exitX=0.7245112687211982;exitY=1;entryX=0.22282187703848655;entryY=0;" edge="1" parent="1" source="4" target="11">
          <mxGeometry relative="1" as="geometry">
            <Array as="points">
              <mxPoint x="427" y="168" />
              <mxPoint x="427" y="218" />
            </Array>
          </mxGeometry>
        </mxCell>
        <mxCell id="29" value="" style="curved=1;startArrow=none;endArrow=block;exitX=0.791949712340645;exitY=1;entryX=0.5017725278253424;entryY=0;" edge="1" parent="1" source="5" target="11">
          <mxGeometry relative="1" as="geometry">
            <Array as="points">
              <mxPoint x="629" y="168" />
            </Array>
          </mxGeometry>
        </mxCell>
        <mxCell id="30" value="" style="curved=1;startArrow=none;endArrow=block;exitX=0.7101322939213567;exitY=1;entryX=0.9218716556078768;entryY=0;" edge="1" parent="1" source="6" target="11">
          <mxGeometry relative="1" as="geometry">
            <Array as="points">
              <mxPoint x="932" y="168" />
              <mxPoint x="932" y="218" />
            </Array>
          </mxGeometry>
        </mxCell>
        <mxCell id="31" value="" style="curved=1;startArrow=none;endArrow=block;exitX=0.533323257688492;exitY=1;entryX=1.0025885595034247;entryY=0.06930658083955332;" edge="1" parent="1" source="7" target="11">
          <mxGeometry relative="1" as="geometry">
            <Array as="points">
              <mxPoint x="1048" y="168" />
              <mxPoint x="1048" y="218" />
            </Array>
          </mxGeometry>
        </mxCell>
        <mxCell id="32" value="" style="curved=1;startArrow=none;endArrow=block;exitX=1.0035579219745223;exitY=0.7852945561704627;entryX=1.004275344488189;entryY=0.2691660026972563;" edge="1" parent="1" source="8" target="5">
          <mxGeometry relative="1" as="geometry">
            <Array as="points">
              <mxPoint x="878" y="84" />
            </Array>
          </mxGeometry>
        </mxCell>
      </root>
    </mxGraphModel>
  </diagram>
</mxfile>
